<?xml version="1.0" encoding="UTF-8"?>
<svg id="Capa_2" data-name="Capa 2" xmlns="http://www.w3.org/2000/svg" viewBox="0 0 86.49 38.48">
  <defs>
    <style>
      .cls-1 {
        fill: #3c3c3b;
      }
    </style>
  </defs>
  <g id="Layer_1" data-name="Layer 1">
    <path class="cls-1" d="m6.7,38.48V11.31H0v-5.1h.62C5.09,6.2,7.85,4.24,8.51,0h5.05v38.48h-6.85Z"/>
    <path class="cls-1" d="m18.91,24.08L30.09,0h7.08v24.41h3.23v6.08h-3.23v7.99h-6.28v-7.99h-11.98v-6.41Zm11.98-14.29h-.1l-6.56,14.62h6.66v-14.62Z"/>
    <path class="cls-1" d="m62.88,38.48h-20.73c0-6.85,2.42-11.58,7.41-16.85l2.76-2.93c2.99-3.1,3.52-4.84,3.52-8.81,0-3.21-1.19-4.78-3.33-4.78-3.43,0-3.76,3.43-3.8,7.5h-6.56v-1.46C42.15,4.03,45.42,0,52.61,0,59.36,0,62.68,3.87,62.68,10.49c0,5-1.38,8.26-5.23,12.23l-3.81,4.02c-2,2.06-3.14,4.18-3.47,5.65h12.7v6.08Z"/>
    <path class="cls-1" d="m65,24.08L76.17,0h7.08v24.41h3.23v6.08h-3.23v7.99h-6.28v-7.99h-11.98v-6.41Zm11.98-14.29h-.1l-6.56,14.62h6.66v-14.62Z"/>
  </g>
</svg>