<?xml version="1.0" encoding="UTF-8"?>
<svg id="Capa_2" data-name="Capa 2" xmlns="http://www.w3.org/2000/svg" viewBox="0 0 84.92 39.99">
  <defs>
    <style>
      .cls-1 {
        fill-rule: evenodd;
      }

      .cls-1, .cls-2 {
        fill: #3c3c3b;
      }
    </style>
  </defs>
  <g id="Layer_1" data-name="Layer 1">
    <path class="cls-1" d="m2.7,21.21v-1.04c0-2.4,0-4.46,1.03-6.87.67-1.72,1.7-3.78,3.08-5.13,1.72-1.35,3.41-2.74,5.47-3.41,2.05-1.05,4.45-1.4,6.85-1.4,2.76,0,5.48.35,8.89,1.4v5.47c-3.06-1.72-5.8-2.72-9.23-2.72-2.39,0-4.1.66-5.84,1.69-1.7,1.03-3.07,2.39-3.75,4.45-.67,1.7-1.03,3.78-1.03,5.5s.35,3.42.68,5.11c.69,1.38,1.37,3.08,2.39,4.12,1.37,1.36,2.4,2.39,4.12,3.09,1.37.68,3.43,1.04,5.13,1.04,3.09,0,6.5-1.04,9.61-3.11h.35l-2.43,5.5c-2.72.34-5.11,1.02-8.21,1.02-2.72-.34-5.47-.68-8.2-1.37-2.4-1.01-4.45-2.75-6.17-4.8-1.7-2.4-2.73-5.13-2.73-8.54m31.5,7.5V10.9c0-1.38,0-2.39-.35-3.07,0-.68,0-1.37-.32-1.72-.35-.68-.69-1-1.38-1.35v-.34h10.97c3.42,0,5.83.69,7.54,2.39,1.36,1.7,2.39,3.75,2.39,6.14-.34,1.36-1.03,3.06-2.06,4.46-1.37,1.38-3.44,2.41-5.47,3.09l7.19,8.88c.68.68,1.37,1.72,2.39,2.76,1.37,1.04,2.75,2.07,4.81,3.08h-4.81c-1.37,0-2.39,0-3.08-.34-.67-.67-1.72-1.36-2.05-2.05l-5.47-6.85-4.47-6.5c1.37-.35,2.75-.69,3.78-1.37,1.37-.36,2.39-1.06,3.08-2.11.66-1.01,1.35-2.37,1.35-3.73-.34-1.72-1.01-3.09-2.04-3.77-1.03-.68-2.75-1.01-4.47-1.01-.67,0-1.7,0-2.72.32v24.32c.32,1.04.32,1.73.68,2.07.34.32.67.67,1.37,1.01h-8.91c.69-.34,1.38-1.01,1.7-2.05,0-.68.35-2.43.35-4.48m32.89,2.06V7.83h-3.78c-2.72,0-4.43.68-5.8,1.69l1.7-5.46c.34.36,1.03.36,2.06.36h18.17c.99,0,1.69,0,2.38-.36l-1.39,5.46c-.32-.66-.99-1.01-1.68-1.35-.71-.34-1.4-.34-2.41-.34h-4.47v22.94c0,.7.34,1.74.34,2.43.35.69,1.05,1.35,2.06,2.05h-9.25c1.39-.34,2.06-2.05,2.06-4.47"/>
    <path class="cls-2" d="m84.12,0H0v39.99h84.92V0h-.8Zm-.82,38.38H1.63V1.61h81.68v36.78Z"/>
  </g>
</svg>