<?xml version="1.0" encoding="UTF-8"?>
<svg id="Capa_2" data-name="Capa 2" xmlns="http://www.w3.org/2000/svg" viewBox="0 0 35.38 35.38">
  <defs>
    <style>
      .cls-1 {
        fill: #fff;
      }

      .cls-2 {
        fill: #5f6d76;
      }
    </style>
  </defs>
  <g id="Layer_1" data-name="Layer 1">
    <g>
      <path class="cls-2" d="m35.38,17.69C35.38,7.92,27.46,0,17.69,0S0,7.92,0,17.69c0,8.83,6.47,16.15,14.93,17.48v-12.36h-4.49v-5.11h4.49v-3.9c0-4.43,2.64-6.88,6.68-6.88,1.94,0,3.96.35,3.96.35v4.35h-2.23c-2.2,0-2.88,1.36-2.88,2.76v3.32h4.91l-.78,5.11h-4.12v12.36c8.46-1.33,14.93-8.65,14.93-17.48Z"/>
      <path class="cls-1" d="m24.58,22.8l.78-5.11h-4.91v-3.32c0-1.4.69-2.76,2.88-2.76h2.23v-4.35s-2.02-.35-3.96-.35c-4.04,0-6.68,2.45-6.68,6.88v3.9h-4.49v5.11h4.49v12.36c.9.14,1.82.22,2.76.22s1.86-.07,2.76-.22v-12.36h4.12Z"/>
    </g>
  </g>
</svg>