<?xml version="1.0" encoding="UTF-8"?>
<svg id="Capa_2" data-name="Capa 2" xmlns="http://www.w3.org/2000/svg" viewBox="0 0 36.32 36.32">
  <defs>
    <style>
      .cls-1 {
        fill: #3d3d3b;
      }
    </style>
  </defs>
  <g id="Capa_1-2" data-name="Capa 1">
    <path class="cls-1" d="m29.3,0H7.02C3.15,0,0,3.15,0,7.02v22.29c0,3.87,3.15,7.02,7.02,7.02h22.28c3.87,0,7.02-3.15,7.02-7.02V7.02c0-3.87-3.15-7.02-7.02-7.02Zm2.01,4.19h.8s0,.8,0,.8v5.35l-6.13.02-.02-6.16,5.35-.02ZM12.98,14.43c1.16-1.61,3.05-2.67,5.18-2.67s4.02,1.05,5.18,2.67c.76,1.05,1.21,2.34,1.21,3.73,0,3.52-2.87,6.39-6.39,6.39s-6.39-2.87-6.39-6.39c0-1.39.45-2.68,1.21-3.73Zm19.81,14.87c0,1.92-1.56,3.48-3.48,3.48H7.02c-1.92,0-3.48-1.56-3.48-3.48v-14.87h5.42c-.47,1.15-.73,2.41-.73,3.73,0,5.48,4.46,9.93,9.93,9.93s9.93-4.46,9.93-9.93c0-1.32-.26-2.58-.73-3.73h5.42v14.87Z"/>
  </g>
</svg>