<?xml version="1.0" encoding="UTF-8"?>
<svg id="Capa_2" data-name="Capa 2" xmlns="http://www.w3.org/2000/svg" viewBox="0 0 88.11 74.01">
  <defs>
    <style>
      .cls-1 {
        fill: #3c3c3b;
      }
    </style>
  </defs>
  <g id="Layer_1" data-name="Layer 1">
    <polygon class="cls-1" points="21.15 61.66 21.15 12.33 14.1 12.33 14.1 37 7.05 12.33 0 12.33 0 61.67 7.05 61.67 7.05 37 14.1 61.66 14.1 61.67 21.15 61.67 21.15 61.66"/>
    <path class="cls-1" d="m38.74,12.32c-10.45,0-10.55,7.03-10.55,7.03v35.29s.1,7.03,10.57,7.03,10.59-7.03,10.59-7.03V19.35s-.17-7.03-10.61-7.03m-.01,42.3c-3.48,0-3.48-3.56-3.48-3.56v-28.15s-.06-3.54,3.48-3.54,3.57,3.54,3.57,3.54v28.15s-.09,3.56-3.57,3.56"/>
    <polygon class="cls-1" points="81.06 12.33 72.25 39.44 63.44 12.33 56.39 12.33 56.39 61.67 63.44 61.67 63.44 34.01 68.73 50.29 75.78 50.29 81.06 34.01 81.06 61.67 88.11 61.67 88.11 12.33 81.06 12.33"/>
    <rect class="cls-1" width="88.11" height="5.28"/>
    <rect class="cls-1" y="68.72" width="88.11" height="5.28"/>
  </g>
</svg>